HIERARCHY
ROOT root
{
	OFFSET 0.000000 0.000000 0.000000
	CHANNELS 6 Xposition Yposition Zposition Zrotation Yrotation Xrotation
	JOINT lhip
	{
		OFFSET 0.058581 -0.082280 -0.017664
		CHANNELS 3 Zrotation Yrotation Xrotation
		JOINT lknee
		{
			OFFSET 0.043451 -0.386469 0.008037
			CHANNELS 3 Zrotation Yrotation Xrotation
			JOINT lankle
			{
				OFFSET -0.014790 -0.426874 -0.037428
				CHANNELS 3 Zrotation Yrotation Xrotation
				JOINT ltoe
				{
					OFFSET 0.041054 -0.060286 0.122042
					CHANNELS 3 Zrotation Yrotation Xrotation
					End Site
					{
						OFFSET 0.000000 0.000000 0.000000
					}
				}
			}
		}
	}
	JOINT rhip
	{
		OFFSET -0.060310 -0.090513 -0.013543
		CHANNELS 3 Zrotation Yrotation Xrotation
		JOINT rknee
		{
			OFFSET -0.043257 -0.383688 -0.004843
			CHANNELS 3 Zrotation Yrotation Xrotation
			JOINT rankle
			{
				OFFSET 0.019056 -0.420046 -0.034562
				CHANNELS 3 Zrotation Yrotation Xrotation
				JOINT rtoe
				{
					OFFSET -0.034840 -0.062106 0.130323
					CHANNELS 3 Zrotation Yrotation Xrotation
					End Site
					{
						OFFSET 0.000000 0.000000 0.000000
					}
				}
			}
		}
	}
	JOINT lowerback
	{
		OFFSET 0.004439 0.124404 -0.038385
		CHANNELS 3 Zrotation Yrotation Xrotation
		JOINT upperback
		{
			OFFSET 0.004488 0.137956 0.026820
			CHANNELS 3 Zrotation Yrotation Xrotation
			JOINT chest
			{
				OFFSET -0.002265 0.056032 0.002855
				CHANNELS 3 Zrotation Yrotation Xrotation
				JOINT lowerneck
				{
					OFFSET -0.013390 0.211636 -0.033468
					CHANNELS 3 Zrotation Yrotation Xrotation
					JOINT upperneck
					{
						OFFSET 0.010113 0.088937 0.050410
						CHANNELS 3 Zrotation Yrotation Xrotation
						End Site
						{
							OFFSET 0.000000 0.000000 0.000000
						}
					}
				}
				JOINT lclavicle
				{
					OFFSET 0.071702 0.114000 -0.018898
					CHANNELS 3 Zrotation Yrotation Xrotation
					JOINT lshoulder
					{
						OFFSET 0.122921 0.045205 -0.019046
						CHANNELS 3 Zrotation Yrotation Xrotation
						JOINT lelbow
						{
							OFFSET 0.255332 -0.015649 -0.022946
							CHANNELS 3 Zrotation Yrotation Xrotation
							JOINT lwrist
							{
								OFFSET 0.265709 0.012698 -0.007375
								CHANNELS 3 Zrotation Yrotation Xrotation
								End Site
								{
									OFFSET 0.000000 0.000000 0.000000
								}
							}
						}
					}
				}
				JOINT rclavicle
				{
					OFFSET -0.082954 0.112472 -0.023707
					CHANNELS 3 Zrotation Yrotation Xrotation
					JOINT rshoulder
					{
						OFFSET -0.113228 0.046853 -0.008472
						CHANNELS 3 Zrotation Yrotation Xrotation
						JOINT relbow
						{
							OFFSET -0.260127 -0.014369 -0.031269
							CHANNELS 3 Zrotation Yrotation Xrotation
							JOINT rwrist
							{
								OFFSET -0.269108 0.006794 -0.006027
								CHANNELS 3 Zrotation Yrotation Xrotation
								End Site
								{
									OFFSET 0.000000 0.000000 0.000000
								}
							}
						}
					}
				}
			}
		}
	}
}
MOTION
Frames: 10
Frame Time: 0.033333
0.432591 -0.180999 0.989192 101.514016 -0.239017 86.368895 4.029606 -4.624203 -16.330664 -3.308748 -2.613248 8.435966 -2.089306 7.156338 -7.417498 0.000000 -0.000000 0.000000 3.913212 -3.987562 6.797727 -0.447071 1.001406 10.621296 -0.840736 -6.716921 -19.440228 0.000000 -0.000000 0.000000 2.023950 7.319730 10.154422 -1.699612 3.202338 2.056681 -0.277886 3.152732 1.080765 -2.345475 25.532066 -9.463520 -5.500556 19.374232 7.024215 -34.478844 5.027876 -1.057075 -54.817354 1.053990 8.434806 23.923536 -35.563000 -7.445043 7.352361 -11.558627 -15.648812 32.268538 3.597599 3.169421 46.360951 14.374157 12.040862 -22.706167 30.051362 -10.271153 -3.127477 11.729724 -6.535669 
0.463280 -0.174544 0.984846 100.059340 -0.290861 86.901234 4.241379 -4.143703 -15.973112 -3.766715 -1.617254 0.312754 -3.059840 6.437690 -7.686204 0.000000 -0.000000 0.000000 3.476513 -4.018332 7.925951 -0.323976 0.975841 11.524400 0.036024 -6.136378 -20.197563 0.000000 -0.000000 0.000000 1.942112 7.441922 9.750289 -1.963877 3.419008 2.108670 -0.309628 3.352738 0.859649 -2.967011 26.028369 -10.640068 -5.914021 19.346041 7.584142 -34.594946 4.773334 -0.951733 -55.382701 1.458643 8.224493 24.675419 -34.480946 -8.706964 7.548353 -11.771023 -15.494440 32.149153 4.484448 3.586257 46.362598 15.829223 12.127496 -23.315291 31.455727 -10.801746 -2.539750 12.510130 -6.243396 
0.495263 -0.167090 0.980419 98.656350 -0.398593 87.349814 4.071079 -4.331215 -16.340944 -3.993959 -0.580573 -1.051805 -3.870272 5.829864 -8.250195 0.000000 -0.000000 0.000000 3.072852 -3.685024 8.448772 -0.421907 1.435781 13.712751 0.704297 -5.574867 -20.732748 0.000000 -0.000000 0.000000 1.662761 7.824466 9.500019 -2.012205 3.338359 1.995361 -0.428960 3.561552 0.505655 -3.263763 26.518462 -11.411649 -6.096544 19.068916 8.076065 -34.352098 4.481006 -1.294705 -56.007352 1.905466 8.163035 24.606214 -33.134360 -8.715365 7.263297 -11.514605 -15.159837 32.121096 4.975539 3.634277 46.883227 16.776388 12.619759 -23.971728 32.849896 -10.824183 -2.120376 13.016462 -5.854817 
0.529771 -0.158477 0.977329 97.694499 -0.457118 86.762431 3.422804 -4.955681 -16.171360 -3.852112 -0.841474 3.115756 -2.975012 6.054281 -6.683673 0.000000 -0.000000 0.000000 2.767764 -3.366102 9.493110 -0.741869 1.866631 17.221737 1.294461 -5.301985 -20.746389 0.000000 -0.000000 0.000000 1.502364 8.014432 9.980028 -1.863644 3.143840 2.115353 -0.505150 3.415498 0.255767 -3.698211 26.521870 -11.726657 -6.494600 19.810778 7.680029 -34.508355 3.767892 -0.813543 -56.083814 2.224993 7.885409 24.675419 -32.363814 -8.869128 7.409704 -11.273245 -15.595028 32.353245 5.695265 3.495381 47.296633 16.977692 13.176412 -25.165381 34.648162 -10.916175 -1.236729 13.306789 -5.208230 
0.565473 -0.148878 0.976336 96.860990 -0.775059 86.082574 2.539863 -5.284547 -15.767780 -3.697692 -1.135849 7.698731 -0.854208 6.244349 -3.348189 0.000000 -0.000000 0.000000 2.134007 -2.869054 8.938731 -0.793437 2.168521 23.765960 2.869387 -4.999213 -18.451192 0.000000 -0.000000 0.000000 0.524417 8.129751 10.220727 -1.446345 3.141639 2.293005 -0.389223 3.272594 0.326064 -3.911541 26.655422 -12.663713 -6.626633 20.630884 7.844894 -34.577070 3.142437 -1.004933 -56.228628 2.286963 7.917923 24.445163 -31.359390 -8.634837 8.187088 -10.780041 -15.418611 33.363620 5.603307 3.127776 47.290416 16.972793 13.828707 -26.180294 36.588565 -11.238018 -0.724743 13.784232 -4.087042 
0.601385 -0.138639 0.978386 96.704506 -1.196067 85.503025 1.910523 -6.006170 -14.956322 -4.200272 -1.373061 11.350041 1.486287 6.749231 -3.929639 0.000000 -0.000000 0.000000 1.078705 -2.521168 6.337551 -0.719721 0.997943 32.838503 4.333346 -4.773920 -12.154309 0.000000 -0.000000 0.000000 -0.533582 7.913021 9.968698 -1.075785 2.923954 2.469352 -0.382900 2.896328 0.575015 -4.180635 26.243657 -12.459981 -6.555107 21.487546 7.356713 -34.562463 2.776196 -0.484227 -56.143874 1.687052 7.846357 24.278761 -30.994349 -8.625652 8.839025 -10.582751 -15.080935 34.308202 5.485243 3.177423 48.026706 16.552907 14.586816 -27.901001 37.696663 -12.324191 -0.384476 14.309587 -2.654415 
0.637182 -0.127891 0.981452 96.940815 -1.483021 84.797192 1.108492 -6.707540 -12.827165 -5.031168 -1.521620 13.339493 3.726279 7.536063 -6.577900 0.000000 -0.000000 0.000000 -0.290300 -1.989515 2.223669 -0.194440 -0.530662 42.837206 5.227264 -4.462501 -1.255235 0.000000 -0.000000 0.000000 -1.249999 7.122729 9.743274 -0.615255 2.748953 2.832353 -0.528735 2.487171 0.427848 -3.985942 26.030845 -10.799466 -6.695070 23.019186 6.532822 -34.190711 2.397984 0.295767 -55.936441 1.159546 7.982395 23.477663 -30.935741 -7.950269 8.522670 -10.682958 -15.352722 34.302203 4.724195 3.122270 49.960941 16.188420 15.521429 -28.828006 37.601361 -13.092081 0.736006 14.447793 -2.160968 
0.672232 -0.118035 0.983454 97.430997 -1.326170 83.914054 0.387766 -5.496088 -10.249082 -5.366590 -2.268280 14.665953 5.866898 7.380076 -9.312936 0.000000 -0.000000 0.000000 -1.081366 -1.875037 -1.790650 1.102957 -0.791938 51.036934 3.548316 -5.310815 6.111035 0.000000 -0.000000 0.000000 -1.410646 5.717269 8.941046 -0.144726 2.541991 3.723269 -0.654436 2.124567 0.865231 -4.087550 25.424083 -9.285240 -6.976239 24.280830 6.545383 -33.902252 1.440348 0.890891 -55.702084 0.508609 7.959307 23.288701 -31.161507 -7.613595 8.970059 -10.897996 -15.089743 34.397982 4.937660 3.744817 50.809013 15.797883 15.848026 -29.350557 37.065265 -13.932324 1.648588 14.213234 -1.800943 
0.704418 -0.109547 0.987243 98.268101 -1.137872 83.230403 -0.121927 -4.244908 -7.569747 -5.546654 -3.666387 14.890243 5.963974 7.137089 -10.961370 0.000000 -0.000000 0.000000 -2.054638 -2.792946 -6.053100 -0.590359 -3.194182 57.220942 2.831325 -8.867319 2.992785 0.000000 -0.000000 0.000000 -1.115142 4.391011 9.482688 -0.022956 2.608252 3.118866 -1.076407 1.485962 0.922466 -3.478499 25.857254 -8.020800 -7.000590 23.915195 8.502254 -34.004622 1.363182 1.446874 -53.953428 -0.451652 7.849607 22.403502 -32.957926 -5.974236 6.271849 -10.906600 -14.090947 35.363591 4.132523 3.485238 50.613839 14.832358 15.916559 -28.304507 36.471921 -13.387924 3.159699 14.156456 -1.368590 
0.736445 -0.102272 0.992310 99.116052 -0.568232 82.531480 -0.179712 -3.484378 -4.284956 -5.294603 -4.963517 14.211054 5.803671 7.248831 -12.644001 0.000000 -0.000000 0.000000 -2.674825 -3.719403 -9.425373 -3.384238 -6.159426 60.116144 2.801282 -11.272194 0.225117 0.000000 -0.000000 0.000000 -0.537157 3.201803 9.795134 0.126953 2.675550 2.861018 -1.041690 0.974696 1.217848 -3.041606 26.011289 -6.067879 -7.691057 23.999131 8.638486 -34.022127 1.586119 1.256644 -52.990972 -2.383374 7.819247 21.717549 -34.007232 -4.563917 5.655093 -12.489029 -12.439631 35.756947 3.152104 2.937515 50.320617 13.674386 15.854045 -27.424577 35.554018 -12.132947 4.634604 14.308415 -0.464776 
